<svg xmlns="http://www.w3.org/2000/svg" width="1544" height="500" viewBox="0 0 1544 500">
  <rect width="1544" height="500" fill="#0b0b16"/>

  <!-- wordmark, top-left, white on dark -->
  <svg x="72" y="44" width="210" height="34.33" viewBox="0 0 256.9 42">
<path d="M34.6 14.3 27.5 21 5.8 0h13.6l15.2 14.3zM27.5 21l7.1 6.9L20.1 42H5.8l21.7-21zM0 17.4h11.5v7.7H0z" fill="#413df6"/>
  <path d="M136.8 2c-4-1.2-8.3-1.8-12.5-1.8C113.9-.1 103.5 0 93 0c-.5 0-1.1 0-1.7.2v41.6h10.9V29.5c7.4 0 14.5.3 21.7 0a50 50 0 0 0 13.2-2c6-2 8.3-7 8.2-13 0-5.7-2.6-10.5-8.5-12.5Zm-6 17.7c-1.7.5-3.4.8-5 .8l-22.4.1-1.1-.1v-11c9 0 18-.2 26.8 0 3.5.2 5 2 5.3 4.8s-1 4.6-3.7 5.4ZM180 0h-11.4l-26.4 42h11.6l5.1-8.2h30.7l5.1 8.2h11.7L179.8 0Zm4.1 25h-19.6l9.8-15.8 9.8 15.8ZM256.9.1h-13l-17 19.9v.1l-.1-.1h-.1L209.6.1h-12.9l24.7 27.7v14.1h10.9V27.6L256.9.1z" fill="#ffffff"/>
  <path d="M63.5 0H49.9L34.6 14.3 27.5 21l7.1 6.9L49.2 42h14.3L41.8 21 63.5 0z" fill="#3eb8eb"/>
  <path d="M57.8 17.4h11.5v7.7H57.8z" fill="#3eb8eb"/>
  </svg>

  <!-- headline -->
  <text x="72" y="216" font-family="Inter, Helvetica Neue, Arial, sans-serif" font-size="76" font-weight="800" fill="#ffffff">Accept payments</text>
  <text x="72" y="306" font-family="Inter, Helvetica Neue, Arial, sans-serif" font-size="76" font-weight="800" fill="#ffffff">with XPay</text>

  <!-- subline -->
  <text x="72" y="364" font-family="Inter, Helvetica Neue, Arial, sans-serif" font-size="34" fill="#c7cbe0">Cards, Apple Pay, ValU and Fawry at your checkout</text>

  <!-- payment method marks -->
  <svg x="72" y="404" width="270" height="54" viewBox="0 0 120 24">
<!-- Composite of the three card marks the XPay platform accepts, copied
       verbatim from the checkout app's CardIcons (Visa, Mastercard, Meeza).
       Amex is deliberately absent: XPay does not accept it. -->
  <g>
    <rect width="36" height="24" rx="4" fill="#1434CB"/>
    <path d="M15.396 16.308H13.146L14.556 7.7H16.806L15.396 16.308ZM11.628 7.7L9.498 13.652L9.252 12.464L9.252 12.465L8.46 8.412C8.46 8.412 8.364 7.7 7.464 7.7H4.044L4 7.82C4 7.82 5.004 8.036 6.168 8.756L8.124 16.308H10.476L14.04 7.7H11.628ZM27.996 16.308H30L28.248 7.7H26.436C25.668 7.7 25.488 8.304 25.488 8.304L22.068 16.308H24.42L24.888 15.036H27.756L27.996 16.308ZM25.5 13.308L26.688 10.016L27.348 13.308H25.5ZM22.704 10.148L23.028 8.064C23.028 8.064 22.116 7.7 21.156 7.7C20.112 7.7 17.748 8.172 17.748 10.316C17.748 12.332 20.58 12.356 20.58 13.412C20.58 14.468 18.024 14.252 17.148 13.556L16.812 15.728C16.812 15.728 17.736 16.308 19.212 16.308C20.688 16.308 22.692 15.452 22.692 13.496C22.692 11.456 19.836 11.276 19.836 10.4C19.836 9.524 21.852 9.656 22.704 10.148Z" fill="white"/>
  </g>
  <g transform="translate(42 0)">
    <rect width="36" height="24" rx="4" fill="#F5F5F5"/>
    <circle cx="14" cy="12" r="7" fill="#EB001B"/>
    <circle cx="22" cy="12" r="7" fill="#F79E1B"/>
    <path d="M18 6.8C19.456 8.056 20.4 9.912 20.4 12C20.4 14.088 19.456 15.944 18 17.2C16.544 15.944 15.6 14.088 15.6 12C15.6 9.912 16.544 8.056 18 6.8Z" fill="#FF5F00"/>
  </g>
  <g transform="translate(84 0)">
    <rect width="36" height="24" rx="4" fill="#FFFFFF" stroke="#E2E2E2" stroke-width="0.5"/>
    <g transform="translate(-21.12 -4.53) scale(0.38)">
      <path fill="#510C76" d="M65.9,38l-0.8,11.5c-0.4,4.2,2.7,7.9,6.9,8.3c0.2,0,0.5,0,0.7,0h3.5c4.6-0.1,8.4-3.7,8.7-8.3l1.3-19.8H74.7C70,29.8,66.2,33.4,65.9,38z M77.9,49.5c-0.1,0.6-0.6,1.1-1.2,1.1h-3.5c-0.6,0-1-0.4-1-1c0,0,0-0.1,0-0.1L73,38c0.1-0.6,0.6-1.1,1.2-1.1h4.6L77.9,49.5z"/>
      <path fill="#510C76" d="M130.8,29.7h-11.7l-1.3,19.8c0,0.8,0,1.5,0.2,2.2h-0.5c-3.7,0-5.5-2.6-5.2-7.4l0.6-8.4l0,0l0.2-3c0.1-1.7-1.2-3.1-2.9-3.3c-0.1,0-0.1,0-0.2,0h-4l-0.2,3.3l-0.5,8v0.5v0.8l-0.1,0.9v0.4V44v0.3l0,0l-0.1,2c-0.1,1.6,0,3.2,0.3,4.8c-0.9,0.5-1.8,0.7-2.8,0.7c-3.2,0-7.3-1-7.3-6.6L95.9,33c0.2-1.7-1.1-3.2-2.8-3.3c-0.1,0-0.2,0-0.2,0h-4L88.7,33l-1.9,28.7c-0.1,1.8-0.4,6.3-0.4,6.3h3.9c1.8,0,3.4-1.5,3.5-3.3l0.4-7c1.1,0.6,3.9,0.9,5.6,0.9c2.8,0,5.4-1.2,7.2-3.3c1.7,2.1,4.3,3.3,7.7,3.3c2.3,0,4.5-0.7,6.3-2c0.7,0.7,1.5,1.2,2.5,1.5l0,0c0.6,0.2,1.3,0.2,1.9,0.2h3.5c4.6-0.1,8.4-3.7,8.8-8.3l0.8-11.9c0.4-4.2-2.7-7.9-6.9-8.3C131.3,29.7,131,29.7,130.8,29.7z M130.6,49.9c0,0.6-0.6,1.1-1.2,1.1h-3.5c-0.6,0-1-0.4-1-1c0,0,0-0.1,0-0.1l0.8-13h4.6c0.6,0,1,0.4,1,1c0,0,0,0.1,0,0.1L130.6,49.9z"/>
      <path fill="#510C76" d="M70,22.9l-0.1,1.6c-0.1,1.5,1,2.9,2.5,3c0.1,0,0.2,0,0.2,0h1.3c1.7,0,3-1.3,3.2-3l0.3-4.6h-4.3C71.5,19.9,70.1,21.2,70,22.9z"/>
      <path fill="#510C76" d="M78.1,22.9L78,24.5c-0.1,1.5,1,2.9,2.6,3c0.1,0,0.1,0,0.2,0H82c1.7,0,3-1.3,3.2-3l0.3-4.6h-4.2C79.6,19.9,78.2,21.2,78.1,22.9z"/>
      <path fill="#EB6B24" d="M91.9,27.4h1.6c1.5,0.1,2.9-1,3-2.6c0,0,0-0.1,0-0.1l0.1-1.3c0.1-1.7-0.8-3.5-2.4-3.5l-4.9,0l-0.3,4.2C88.9,25.8,90.2,27.3,91.9,27.4z"/>
      <path fill="#510C76" d="M95.6,63.4L95.5,65c-0.1,1.5,1,2.9,2.5,3c0.1,0,0.2,0,0.3,0h1.3c1.7,0,3-1.3,3.2-3l0.3-4.6h-4.2C97.1,60.4,95.7,61.8,95.6,63.4z"/>
      <path fill="#510C76" d="M104.2,63.4l-0.1,1.6c-0.1,1.5,1,2.9,2.5,3c0.1,0,0.2,0,0.2,0h1.3c1.7,0,3-1.3,3.2-3l0.3-4.6h-4.2C105.7,60.4,104.3,61.8,104.2,63.4z"/>
      <path fill="#510C76" d="M109.4,27.3h-0.9c-0.2,0-0.2-0.1-0.2-0.2l0.3-3.8c0-0.3,0-0.6,0-0.9c0-0.4-0.2-0.6-0.6-0.6s-0.7,0-1,0c-0.1,0-0.1,0-0.1,0.1c0.1,0.6,0.1,1.2,0,1.7c-0.1,0.8-0.1,1.7-0.2,2.5c0,0.3,0,0.6-0.1,0.9s-0.1,0.2-0.3,0.2h-1.8c-0.2,0-0.2,0-0.2-0.2c0.1-1.3,0.2-2.6,0.3-3.9c0-0.3,0-0.6,0-0.9c0-0.3-0.2-0.5-0.4-0.5c0,0-0.1,0-0.1,0c-0.3,0-0.7,0-1,0c-0.1,0-0.1,0-0.1,0.1c-0.1,0.8-0.1,1.6-0.2,2.4s-0.1,1.8-0.2,2.7c0,0.2-0.1,0.3-0.3,0.3h-1.8c-0.2,0-0.3-0.1-0.2-0.3c0.1-1.3,0.2-2.7,0.3-4c0.1-0.9,0.1-1.8,0.2-2.7c0-0.2,0.1-0.2,0.3-0.3c0.5-0.1,0.9-0.1,1.4-0.2c0.8-0.1,1.5-0.1,2.3,0c0.4,0,0.9,0.2,1.3,0.3c0.1,0,0.1,0,0.2,0c0.8-0.3,1.7-0.4,2.5-0.4c0.4,0,0.7,0.1,1.1,0.2c0.6,0.2,1.1,0.7,1.2,1.3c0.1,0.5,0.1,1.1,0,1.6l-0.2,3.3c0,0.3,0,0.6-0.1,0.9s-0.1,0.2-0.3,0.2L109.4,27.3z"/>
      <path fill="#510C76" d="M123.1,24.3h-2c-0.1,0-0.2,0-0.2,0.2c0,0.6,0.2,0.9,0.8,0.9c0.5,0,0.9,0,1.4,0h1.4c0.2,0,0.3,0,0.3,0.3c0,0.4,0,0.8-0.1,1.3c0,0.1-0.1,0.2-0.2,0.2c0,0,0,0,0,0c-0.7,0.1-1.3,0.2-2,0.2c-0.6,0-1.2,0-1.8,0c-0.4,0-0.8-0.2-1.2-0.4c-0.4-0.3-0.7-0.7-0.7-1.2c-0.1-0.7-0.1-1.4,0-2.1c0-0.6,0.1-1.2,0.3-1.8c0.1-0.6,0.5-1.2,1.1-1.5c0.3-0.2,0.7-0.3,1.1-0.4c0.9-0.1,1.8-0.1,2.6,0c0.4,0.1,0.8,0.2,1.1,0.5c0.3,0.3,0.6,0.8,0.6,1.3c0.1,0.8,0.1,1.6,0,2.4c0,0.1-0.1,0.2-0.2,0.2H125L123.1,24.3z M121.1,22.9h1.8c0.5,0,0.5,0,0.4-0.5c0-0.3-0.3-0.5-0.6-0.6c-0.2,0-0.5,0-0.7,0c-0.4,0-0.7,0.2-0.8,0.6C121.1,22.5,121.1,22.7,121.1,22.9z"/>
      <path fill="#510C76" d="M115.9,24.3c-0.7,0-1.3,0-1.9,0c-0.2,0-0.2,0.1-0.2,0.2c0,0.6,0.2,0.8,0.8,0.9c0.2,0,0.4,0,0.5,0h2.3c0.2,0,0.3,0,0.2,0.2c0,0.4-0.1,0.9-0.1,1.3c0,0.1-0.1,0.2-0.2,0.2c0,0,0,0,0,0c-0.6,0.1-1.3,0.1-1.9,0.2c-0.7,0-1.4,0-2.2-0.1c-0.3,0-0.6-0.2-0.9-0.3c-0.4-0.3-0.7-0.7-0.8-1.3c-0.1-0.8-0.1-1.5,0-2.3c0-0.5,0.1-1,0.2-1.5c0.1-0.7,0.5-1.3,1.1-1.6c0.3-0.2,0.7-0.3,1.1-0.3c0.9-0.1,1.8-0.1,2.7,0c0.4,0.1,0.8,0.2,1.1,0.5c0.4,0.3,0.6,0.8,0.6,1.3c0,0.6,0,1.2,0,1.7c0,0.2,0,0.4,0,0.5c0,0.1-0.1,0.3-0.3,0.3L115.9,24.3L115.9,24.3z M116.1,22.9c0-0.2,0-0.4,0-0.6c0-0.3-0.3-0.5-0.5-0.5c-0.2,0-0.5,0-0.7,0c-0.6,0-0.9,0.5-0.9,1.1L116.1,22.9z"/>
      <path fill="#510C76" d="M135.1,21.7h-1.3c-0.2,0-0.3-0.1-0.2-0.2c0-0.4,0.1-0.9,0.1-1.3c0-0.1,0.1-0.2,0.2-0.2c1-0.2,2.1-0.3,3.1-0.2c0.5,0,0.9,0.1,1.4,0.2c0.7,0.2,1.2,0.9,1.2,1.6c0,0.9-0.1,1.8-0.2,2.8l-0.1,2.1c0,0.4-0.1,0.5-0.5,0.6c-1.3,0.2-2.6,0.3-3.9,0.2c-0.3,0-0.7-0.1-1-0.1c-0.5-0.1-0.9-0.6-1-1.1c-0.1-0.7-0.1-1.4,0.2-2c0.2-0.6,0.8-1.1,1.5-1.1c0.4-0.1,0.7-0.1,1.1-0.1c0.5,0,1,0,1.5,0c0.1,0,0.1,0,0.1-0.1v-0.1c0-0.5-0.2-0.8-0.8-0.8L135.1,21.7z M137.1,24.1c-0.5,0-1,0-1.4,0c-0.3,0-0.6,0.2-0.6,0.5c0,0.1,0,0.2,0,0.3c0,0.3,0.2,0.5,0.4,0.5c0,0,0,0,0.1,0c0.5,0,1,0,1.4-0.1c0,0,0.1,0,0.1-0.1C137,24.9,137,24.5,137.1,24.1L137.1,24.1z"/>
      <path fill="#510C76" d="M129.1,25.3h3c0.1,0,0.1,0.1,0.1,0.2c0,0.5-0.1,1-0.1,1.5c0,0.2-0.1,0.2-0.3,0.2H126c-0.3,0-0.3-0.1-0.3-0.3s0-0.7,0.1-1c0-0.1,0.1-0.2,0.1-0.3l2.8-3.3l0.5-0.6h-2.7c-0.3,0-0.3,0-0.3-0.3l0.1-1.3c0-0.2,0.1-0.3,0.3-0.3h5.6c0.2,0,0.3,0.1,0.2,0.3c0,0.4,0,0.7-0.1,1.1c0,0.1,0,0.2-0.1,0.3c-1,1.2-2,2.5-3,3.7L129.1,25.3z"/>
      <path fill="#EB6B24" d="M117.1,60.8c-1.8,0.1-3.2,1.5-3.3,3.3l-0.3,3.9h20c1.8-0.1,3.2-1.5,3.3-3.3l0.3-3.9H117.1z"/>
    </g>
  </g>
  </svg>
  <svg x="360" y="404" width="54" height="54" viewBox="100.9 267.9 233 233">
<path fill="#FFD200" d="M333.9,384.4c0,64.4-52.1,116.5-116.5,116.5c-12.3,0-24.1-1.9-35.1-5.4c-16.6-5.2-31.7-14.2-44.3-26 c-23-21.1-37.2-51.5-37.2-85.2c0-64.4,52.1-116.5,116.5-116.5c14,0,27.3,2.4,39.6,6.9c16.1,5.8,30.6,15.1,42.4,26.9 C320.7,322.9,333.9,352.1,333.9,384.4z"/>
  <path fill="#006E9C" d="M271.4,433.9l-15.7-7.8c0,0-26.7,48.7-73.6,69.5c-16.6-5.2-31.7-14.2-44.3-26c10.3-1.5,26.9-6.7,44.3-23.9 c28.6-28,35.1-43.5,35.1-43.5l-12.3-8.2c-4.3-2.8-3.4-9.2,1.3-10.8l53.8-18.7c3.7-1.3,7.7,1.1,8,5l8,60.9 C276.8,433.1,274,435.2,271.4,433.9z"/>
  <path fill="#006E9C" d="M287.6,366.4c-1.3,3.4-6.2,2.8-6.7-0.7l-3.5-20.5l-26.5,8.2c-3,0.9-5.6-2.1-4.3-4.9c3.5-7.5,8.6-20,12.7-36 c3.7-15.3,1.1-28.8-2.1-37.5c16.1,5.8,30.6,15.1,42.4,26.9C301.6,326.1,293.2,352.1,287.6,366.4z"/>
  </svg>
  <svg x="430" y="404" width="94.5" height="54" viewBox="0 0 56 32">
<!-- valU mark, copied verbatim from the XPay checkout app's ValuIcon. -->
  <path d="M36.7862 11.2614C36.7862 12.1529 36.8003 13.043 36.7836 13.9332C36.7515 15.6917 36.4432 17.408 35.8664 19.0679C34.1297 24.0682 30.8387 27.6903 26.0487 29.9573C24.5612 30.6617 22.9877 31.1113 21.364 31.3816C19.933 31.6211 18.4866 31.6723 17.0467 31.5621C13.4487 31.2881 10.1911 30.0739 7.31631 27.8926C4.20773 25.5347 2.05613 22.4928 0.862797 18.7836C0.532671 17.7589 0.305308 16.7112 0.171716 15.6418C0.0650994 14.7887 0.00857979 13.9332 0.00601072 13.0738C0.00087257 11.6546 -0.00555011 10.2355 0.00857979 8.81636C0.016287 7.96719 0.102351 7.12186 0.373388 6.30983C1.36377 3.33837 3.3882 1.45559 6.42741 0.660207C7.30089 0.430943 8.19879 0.392519 9.08769 0.482175C11.1712 0.692227 12.9464 1.55805 14.3825 3.08861C15.5052 4.28488 16.204 5.69889 16.4802 7.30757C16.5727 7.84551 16.6022 8.39882 16.6099 8.94444C16.6279 10.3943 16.6318 11.8442 16.6099 13.294C16.5984 14.0536 17.1931 14.8438 17.9882 15.0347C19.0904 15.2998 20.2002 14.4711 20.2092 13.3389C20.2208 11.8262 20.1874 10.3136 20.2182 8.80227C20.2863 5.43888 21.8097 2.93619 24.7834 1.33391C25.6197 0.883067 26.5266 0.626906 27.4758 0.516757C29.7263 0.255473 31.7687 0.785726 33.5645 2.16003C35.2267 3.43315 36.2582 5.11228 36.6616 7.17053C36.7617 7.68157 36.7951 8.19517 36.7951 8.71262C36.7951 9.56179 36.7951 10.411 36.7951 11.2601H36.7862V11.2614ZM23.7995 11.0386C23.7995 11.743 23.8046 12.4474 23.7969 13.1519C23.7931 13.4516 23.7764 13.7513 23.7391 14.0484C23.594 15.1845 23.1161 16.1733 22.3158 16.9853C20.9144 18.407 19.2124 18.9283 17.2522 18.5261C14.8398 18.0317 13.0659 15.8723 13.0338 13.4554C13.0145 11.9018 13.0376 10.3482 13.0209 8.79459C13.0171 8.39498 12.9785 7.98384 12.8809 7.59704C12.3132 5.34538 10.2194 3.7495 7.69653 4.0569C6.37988 4.217 5.31243 4.86764 4.5173 5.93455C3.89687 6.76708 3.59758 7.71231 3.59115 8.74464C3.58345 10.1228 3.59115 11.4996 3.5873 12.8778C3.58473 13.5822 3.61941 14.2828 3.69905 14.9834C3.79154 15.807 3.95211 16.6152 4.18846 17.408C5.07351 20.3846 6.73056 22.8514 9.15577 24.7944C11.7518 26.8718 14.7345 27.9349 18.055 28.0425C18.7166 28.063 19.382 27.9938 20.0435 27.9426C21.03 27.8657 21.987 27.6403 22.9273 27.3368C25.4334 26.5299 27.5735 25.153 29.35 23.2177C30.8015 21.6359 31.8548 19.8249 32.5176 17.7871C32.9981 16.3091 33.2203 14.7913 33.2331 13.2428C33.2447 11.7929 33.2421 10.3431 33.2306 8.89193C33.228 8.53202 33.192 8.16827 33.1265 7.81477C32.6564 5.24676 29.9987 3.40753 27.2099 4.20291C25.1868 4.78055 23.8136 6.61082 23.8008 8.70749C23.7969 9.48494 23.8008 10.2611 23.8008 11.0386" fill="#FF5100"/>
  <path d="M6.53262 13.0365C6.53262 12.5153 6.52363 12.1105 6.53391 11.7071C6.56088 10.7439 7.34445 9.98823 8.30785 9.98439C9.2507 9.98055 10.051 10.7337 10.0818 11.6738C10.0998 12.181 10.0844 12.6882 10.0908 13.1966C10.1075 14.5838 10.3939 15.9068 11.0632 17.1313C12.2706 19.3458 14.1075 20.7534 16.5661 21.3515C17.4538 21.568 18.3581 21.6256 19.256 21.518C22.0074 21.1876 24.1218 19.8363 25.5682 17.4745C26.1591 16.5101 26.5252 15.4585 26.642 14.3302C26.6909 13.8691 26.7165 13.4029 26.7332 12.9392C26.7487 12.5255 26.7384 12.1105 26.7397 11.6968C26.7422 10.799 27.513 10.1086 28.2785 10.0126C29.4359 9.86656 30.3158 10.8195 30.2978 11.7148C30.2811 12.5332 30.3261 13.3542 30.2734 14.1688C30.1925 15.4022 29.9138 16.5997 29.4321 17.7435C28.2362 20.5869 26.2413 22.6771 23.4551 24.0117C22.4108 24.5113 21.3087 24.8251 20.1616 25.0005C19.2611 25.1376 18.3568 25.167 17.4576 25.094C14.9785 24.8891 12.7613 24.0028 10.8435 22.4159C8.7857 20.7137 7.44721 18.5581 6.82293 15.967C6.58144 14.9654 6.49537 13.9472 6.53262 13.0353" fill="#FF5100"/>
  <path d="M51.3404 13.8152L52.4721 13.0314C52.7624 12.829 52.8343 12.4307 52.6326 12.1412L50.7212 9.39771C50.4952 9.07367 50.7277 8.62795 51.1246 8.62795H54.4759C54.8292 8.62795 55.1169 8.34233 55.1169 7.98883V6.61325C55.1169 6.25974 54.8305 5.97413 54.4759 5.97413H51.1246C50.7277 5.97413 50.4952 5.52969 50.7212 5.20436L52.6326 2.46088C52.8356 2.17014 52.7624 1.77181 52.4721 1.57072L51.3404 0.786871C51.0488 0.584504 50.6493 0.65751 50.4476 0.946971L47.6409 4.9751L44.8342 0.946971C44.6325 0.656229 44.2318 0.584504 43.9415 0.786871L42.8098 1.57072C42.5182 1.77309 42.4463 2.17142 42.6492 2.46088L44.5606 5.20436C44.7867 5.52841 44.5542 5.97413 44.1573 5.97413H40.8059C40.4527 5.97413 40.1649 6.25974 40.1649 6.61325V7.98883C40.1649 8.34105 40.4514 8.62795 40.8059 8.62795H44.1573C44.5542 8.62795 44.7867 9.07239 44.5606 9.39771L42.6492 12.1412C42.4463 12.4319 42.5195 12.8303 42.8098 13.0314L43.9415 13.8152C44.233 14.0176 44.6325 13.9446 44.8342 13.6551L47.6409 9.62698L50.4476 13.6551C50.6506 13.9446 51.0501 14.0176 51.3404 13.8152Z" fill="#FF5100"/>
  </svg>
  <svg x="542" y="404" width="84.34" height="54" viewBox="0 0 165.52107 105.9651">
<!-- Apple Pay mark, copied verbatim from brand/apple-pay.svg (Apple's supplied artwork). -->
      <path d="M150.69807,0H14.82318c-0.5659,0-1.1328,0-1.69769,0.0033c-0.47751,0.0034-0.95391,0.0087-1.43031,0.0217c-1.039,0.0281-2.0869,0.0894-3.1129,0.2738c-1.0424,0.1876-2.0124,0.4936-2.9587,0.9754c-0.9303,0.4731-1.782,1.0919-2.52009,1.8303c-0.73841,0.7384-1.35721,1.5887-1.83021,2.52c-0.4819,0.9463-0.7881,1.9166-0.9744,2.9598c-0.18539,1.0263-0.2471,2.074-0.2751,3.1119c-0.0128,0.4764-0.01829,0.9528-0.0214,1.4291c-0.0033,0.5661-0.0022,1.1318-0.0022,1.6989V91.142c0,0.5671-0.0011,1.13181,0.0022,1.69901c0.00311,0.4763,0.0086,0.9527,0.0214,1.4291c0.028,1.03699,0.08971,2.08469,0.2751,3.11069c0.1863,1.0436,0.4925,2.0135,0.9744,2.9599c0.473,0.9313,1.0918,1.7827,1.83021,2.52c0.73809,0.7396,1.58979,1.3583,2.52009,1.8302c0.9463,0.4831,1.9163,0.7892,2.9587,0.9767c1.026,0.1832,2.0739,0.2456,3.1129,0.2737c0.4764,0.0108,0.9528,0.0172,1.43031,0.0194c0.56489,0.0044,1.13179,0.0044,1.69769,0.0044h135.87489c0.5649,0,1.13181,0,1.69659-0.0044c0.47641-0.0022,0.95282-0.0086,1.4314-0.0194c1.0368-0.0281,2.0845-0.0905,3.11301-0.2737c1.041-0.1875,2.0112-0.4936,2.9576-0.9767c0.9313-0.4719,1.7805-1.0906,2.52011-1.8302c0.7372-0.7373,1.35599-1.5887,1.8302-2.52c0.48299-0.9464,0.78889-1.9163,0.97429-2.9599c0.1855-1.026,0.2457-2.0737,0.2738-3.11069c0.013-0.4764,0.01941-0.9528,0.02161-1.4291c0.00439-0.5672,0.00439-1.1319,0.00439-1.69901V14.8242c0-0.5671,0-1.1328-0.00439-1.6989c-0.0022-0.4763-0.00861-0.9527-0.02161-1.4291c-0.02811-1.0379-0.0883-2.0856-0.2738-3.1119c-0.18539-1.0432-0.4913-2.0135-0.97429-2.9598c-0.47421-0.9313-1.093-1.7816-1.8302-2.52c-0.73961-0.7384-1.58881-1.3572-2.52011-1.8303c-0.9464-0.4818-1.9166-0.7878-2.9576-0.9754c-1.0285-0.1844-2.0762-0.2457-3.11301-0.2738c-0.47858-0.013-0.95499-0.0183-1.4314-0.0217C151.82988,0,151.26297,0,150.69807,0L150.69807,0z" />
      <path
        fill="#FFFFFF"
        d="M150.69807,3.532l1.67149,0.0032c0.4528,0.0032,0.90561,0.0081,1.36092,0.0205c0.79201,0.0214,1.71849,0.0643,2.58209,0.2191c0.7507,0.1352,1.38029,0.3408,1.9845,0.6484c0.5965,0.3031,1.14301,0.7003,1.62019,1.1768c0.479,0.4797,0.87671,1.0271,1.18381,1.6302c0.30589,0.5995,0.51019,1.2261,0.64459,1.9823c0.1544,0.8542,0.1971,1.7832,0.21881,2.5801c0.01219,0.4498,0.01819,0.8996,0.0204,1.3601c0.00429,0.5569,0.0042,1.1135,0.0042,1.6715V91.142c0,0.558,0.00009,1.1136-0.0043,1.6824c-0.00211,0.4497-0.0081,0.8995-0.0204,1.3501c-0.02161,0.7957-0.0643,1.7242-0.2206,2.5885c-0.13251,0.7458-0.3367,1.3725-0.64429,1.975c-0.30621,0.6016-0.70331,1.1484-1.18022,1.6251c-0.47989,0.48-1.0246,0.876-1.62819,1.1819c-0.5997,0.3061-1.22821,0.51151-1.97151,0.6453c-0.88109,0.157-1.84639,0.2002-2.57339,0.2199c-0.4574,0.0103-0.9126,0.01649-1.37889,0.0187c-0.55571,0.0043-1.1134,0.0042-1.6692,0.0042H14.82318c-0.0074,0-0.0146,0-0.0221,0c-0.5494,0-1.0999,0-1.6593-0.0043c-0.4561-0.00211-0.9112-0.0082-1.3512-0.0182c-0.7436-0.0201-1.7095-0.0632-2.5834-0.2193c-0.74969-0.1348-1.3782-0.3402-1.9858-0.6503c-0.59789-0.3032-1.1422-0.6988-1.6223-1.1797c-0.4764-0.4756-0.8723-1.0207-1.1784-1.6232c-0.3064-0.6019-0.5114-1.2305-0.64619-1.9852c-0.15581-0.8626-0.19861-1.7874-0.22-2.5777c-0.01221-0.4525-0.01731-0.9049-0.02021-1.3547l-0.0022-1.3279l0.0001-0.3506V14.8242l-0.0001-0.3506l0.0021-1.3251c0.003-0.4525,0.0081-0.9049,0.02031-1.357c0.02139-0.7911,0.06419-1.7163,0.22129-2.5861c0.1336-0.7479,0.3385-1.3765,0.6465-1.9814c0.3037-0.5979,0.7003-1.1437,1.17921-1.6225c0.477-0.4772,1.02309-0.8739,1.62479-1.1799c0.6011-0.3061,1.2308-0.5116,1.9805-0.6465c0.8638-0.1552,1.7909-0.198,2.5849-0.2195c0.4526-0.0123,0.9052-0.0172,1.3544-0.0203l1.6771-0.0033H150.69807"
      />
      <path d="M45.1862,35.64053c1.41724-1.77266,2.37897-4.15282,2.12532-6.58506c-2.07464,0.10316-4.60634,1.36871-6.07207,3.14276c-1.31607,1.5192-2.4809,3.99902-2.17723,6.3293C41.39111,38.72954,43.71785,37.36345,45.1862,35.64053" />
      <path d="M47.28506,38.98252c-3.38211-0.20146-6.25773,1.91951-7.87286,1.91951c-1.61602,0-4.08931-1.81799-6.76438-1.76899c-3.48177,0.05114-6.71245,2.01976-8.4793,5.15079c-3.63411,6.2636-0.95904,15.55471,2.57494,20.65606c1.71618,2.5238,3.78447,5.30269,6.50976,5.20287c2.57494-0.10104,3.58421-1.66732,6.71416-1.66732c3.12765,0,4.03679,1.66732,6.76252,1.61681c2.82665-0.05054,4.59381-2.52506,6.30997-5.05132c1.96878-2.877,2.77473-5.65498,2.82542-5.80748c-0.0507-0.05051-5.45058-2.12204-5.50065-8.33358c-0.05098-5.20101,4.23951-7.6749,4.44144-7.82832C52.3832,39.4881,48.5975,39.08404,47.28506,38.98252" />
      <path d="M76.73385,31.94381c7.35096,0,12.4697,5.06708,12.4697,12.44437c0,7.40363-5.22407,12.49704-12.65403,12.49704h-8.13892v12.94318h-5.88037v-37.8846H76.73385z M68.41059,51.9493h6.74732c5.11975,0,8.0336-2.75636,8.0336-7.53479c0-4.77792-2.91385-7.50845-8.00727-7.50845h-6.77365V51.9493z" />
      <path d="M90.73997,61.97864c0-4.8311,3.70182-7.79761,10.26583-8.16526l7.56061-0.44614v-2.12639c0-3.07185-2.07423-4.90959-5.53905-4.90959c-3.28251,0-5.33041,1.57492-5.82871,4.04313h-5.35574c0.31499-4.98859,4.56777-8.66407,11.3941-8.66407c6.69466,0,10.97377,3.54432,10.97377,9.08388v19.03421h-5.43472v-4.54194h-0.13065c-1.60125,3.07185-5.09341,5.01441-8.71623,5.01441C94.52078,70.30088,90.73997,66.94038,90.73997,61.97864z M108.56641,59.4846v-2.17905l-6.8,0.41981c-3.38683,0.23649-5.30306,1.73291-5.30306,4.09579c0,2.41504,1.99523,3.99046,5.04075,3.99046C105.46823,65.81161,108.56641,63.08108,108.56641,59.4846z" />
      <path d="M119.34167,79.9889v-4.5946c0.4193,0.10483,1.36425,0.10483,1.83723,0.10483c2.6252,0,4.04313-1.10245,4.90908-3.9378c0-0.05267,0.49931-1.68025,0.49931-1.70658l-9.97616-27.64562h6.14268l6.98432,22.47371h0.10432l6.98433-22.47371h5.9857l-10.34483,29.06304c-2.36186,6.69517-5.0924,8.84789-10.81577,8.84789C121.17891,80.12006,119.76098,80.06739,119.34167,79.9889z" />
    </svg>

  <!-- brand mark, right -->
  <svg x="1160" y="146" width="300" height="181.75" viewBox="0 0 342.5 207.5" opacity="0.9">
<path d="M96 0H28.4L136 103.8l35.3-33.1L96 0zM28.4 207.5h70.8l72.1-69.6-35.3-34.1L28.4 207.5zM0 85.7h56.9v37.9H0z" fill="#413df6"/>
  <path d="M314.1 0h-67.6l-75.2 70.7-35.3 33.1 35.3 34.1 72 69.6h70.8L206.5 103.8 314.1 0z" fill="#3eb8eb"/>
  <path d="M285.7 85.7h56.9v37.9h-56.9z" fill="#3eb8eb"/>
  </svg>
</svg>
