<svg xmlns="http://www.w3.org/2000/svg" viewBox="0 0 256.9 42" preserveAspectRatio="xMidYMid meet">
  <path d="M34.6 14.3 27.5 21 5.8 0h13.6l15.2 14.3zM27.5 21l7.1 6.9L20.1 42H5.8l21.7-21zM0 17.4h11.5v7.7H0z" fill="#413df6"/>
  <path d="M136.8 2c-4-1.2-8.3-1.8-12.5-1.8C113.9-.1 103.5 0 93 0c-.5 0-1.1 0-1.7.2v41.6h10.9V29.5c7.4 0 14.5.3 21.7 0a50 50 0 0 0 13.2-2c6-2 8.3-7 8.2-13 0-5.7-2.6-10.5-8.5-12.5Zm-6 17.7c-1.7.5-3.4.8-5 .8l-22.4.1-1.1-.1v-11c9 0 18-.2 26.8 0 3.5.2 5 2 5.3 4.8s-1 4.6-3.7 5.4ZM180 0h-11.4l-26.4 42h11.6l5.1-8.2h30.7l5.1 8.2h11.7L179.8 0Zm4.1 25h-19.6l9.8-15.8 9.8 15.8ZM256.9.1h-13l-17 19.9v.1l-.1-.1h-.1L209.6.1h-12.9l24.7 27.7v14.1h10.9V27.6L256.9.1z" fill="#1d1d1c"/>
  <path d="M63.5 0H49.9L34.6 14.3 27.5 21l7.1 6.9L49.2 42h14.3L41.8 21 63.5 0z" fill="#3eb8eb"/>
  <path d="M57.8 17.4h11.5v7.7H57.8z" fill="#3eb8eb"/>
</svg>
